# File created by Blade
# Date/Time:  Thu Sep 25 18:39:44 2014
# Frame Rate: 120.000 fps
#------------------------------------------------------
:FULLY-SPECIFIED
:DEGREES
1223
root -1.051374 33.169099 -2.139431 7.061924 4.054241 -0.904378
Spine -14.054222 4.001617 -2.569925
Head 1.141676 4.262070 10.222171
LeftShoulder -17.176776 -15.903548 46.036763
LeftArm 158.359746 -41.901866 -109.050150
LeftForeArm -41.710185 0.000000 144.001104
LeftHand -5.356038 -0.000000 -16.964408
LeftHandThumb1 -26.253704 0.000000 33.147579
RightShoulder -19.317962 28.333264 -53.138698
RightArm 57.696502 42.681527 45.749032
RightForeArm 60.560525 -0.000000 102.594090
RightHand 2.572490 -0.000000 5.739978
RightHandThumb1 -24.326973 -0.000000 -32.862282
LeftUpLeg 0.010616 5.815328 2.263153
LeftLeg -1.246734 -0.000000 0.000000
LeftFoot -8.206691 1.670315 -11.117492
LeftToeBase 9.866906 -0.000000 -0.000000
RightUpLeg -0.616010 -7.397554 0.518038
RightLeg 0.752774 -0.000000 -0.000000
RightFoot -6.807490 -1.633740 0.525925
RightToeBase -1.058514 -0.000000 0.000000
1224
root -1.051791 33.168480 -2.141555 7.067460 4.056789 -0.899198
Spine -14.062672 4.026464 -2.558348
Head 1.147011 4.260785 10.133754
LeftShoulder -17.038283 -15.612334 45.880530
LeftArm 158.925503 -41.847525 -109.432227
LeftForeArm -41.803828 -0.000000 143.964534
LeftHand -5.309670 -0.000000 -16.938538
LeftHandThumb1 -26.253704 0.000000 33.147579
RightShoulder -19.364306 28.331452 -53.224303
RightArm 57.692825 42.638571 45.806146
RightForeArm 60.510587 0.000000 102.602269
RightHand 2.512743 0.000000 5.730168
RightHandThumb1 -24.326973 -0.000000 -32.862282
LeftUpLeg -0.001566 5.821401 2.257688
LeftLeg -1.242100 -0.000000 0.000000
LeftFoot -8.211341 1.667811 -11.113251
LeftToeBase 9.873140 -0.000000 -0.000000
RightUpLeg -0.640701 -7.421888 0.516849
RightLeg 0.784996 -0.000000 -0.000000
RightFoot -6.811983 -1.628060 0.508617
RightToeBase -1.157608 -0.000000 0.000000
1225
root -1.052537 33.168245 -2.142102 7.060792 4.063982 -0.907276
Spine -14.064869 4.026256 -2.551587
Head 1.165189 4.255115 10.144541
LeftShoulder -17.044022 -15.655707 45.905458
LeftArm 158.857848 -41.859971 -109.391338
LeftForeArm -41.773184 -0.000000 143.967403
LeftHand -5.481333 -0.000000 -16.604249
LeftHandThumb1 -26.253704 0.000000 33.147579
RightShoulder -19.356876 28.325111 -53.233229
RightArm 57.660310 42.646208 45.798511
RightForeArm 60.519831 -0.000000 102.618802
RightHand 2.524653 -0.000000 5.735724
RightHandThumb1 -24.326973 -0.000000 -32.862282
LeftUpLeg 0.002590 5.818481 2.274151
LeftLeg -1.248296 -0.000000 0.000000
LeftFoot -8.201936 1.632959 -11.074884
LeftToeBase 9.868318 -0.000000 -0.000000
RightUpLeg -0.636179 -7.430952 0.527220
RightLeg 0.786626 -0.000000 -0.000000
RightFoot -6.811144 -1.626546 0.493853
RightToeBase -1.116582 -0.000000 0.000000
1226
root -1.052748 33.168713 -2.143687 7.057717 4.069342 -0.904793
Spine -14.070478 4.015507 -2.559225
Head 1.200383 4.248087 10.167130
LeftShoulder -17.045856 -15.681312 45.935520
LeftArm 158.803447 -41.885600 -109.350296
LeftForeArm -41.833852 0.000000 143.964788
LeftHand -5.311380 0.000000 -17.000548
LeftHandThumb1 -26.253704 0.000000 33.147579
RightShoulder -19.353053 28.320580 -53.220770
RightArm 57.671165 42.633936 45.811773
RightForeArm 60.513848 -0.000000 102.615261
RightHand 2.523866 -0.000000 5.753202
RightHandThumb1 -24.326973 -0.000000 -32.862282
LeftUpLeg -0.002127 5.808587 2.274000
LeftLeg -1.238897 -0.000000 0.000000
LeftFoot -8.188168 1.631614 -11.062754
LeftToeBase 9.833660 -0.000000 -0.000000
RightUpLeg -0.638095 -7.425403 0.526003
RightLeg 0.794152 -0.000000 -0.000000
RightFoot -6.817781 -1.637145 0.521926
RightToeBase -1.102897 -0.000000 0.000000
1227
root -1.052825 33.168294 -2.145473 7.053765 4.070489 -0.904360
Spine -14.075715 4.016450 -2.557190
Head 1.239650 4.246420 10.155218
LeftShoulder -17.039257 -15.716170 45.965891
LeftArm 158.742204 -41.924012 -109.325863
LeftForeArm -41.848902 -0.000000 143.965051
LeftHand -5.275956 0.000000 -17.043397
LeftHandThumb1 -26.253704 0.000000 33.147579
RightShoulder -19.375017 28.384070 -53.272125
RightArm 57.590385 42.559856 45.787593
RightForeArm 60.504877 -0.000000 102.618060
RightHand 2.521831 -0.000000 5.756243
RightHandThumb1 -24.326973 -0.000000 -32.862282
LeftUpLeg -0.002731 5.816726 2.271857
LeftLeg -1.235387 -0.000000 0.000000
LeftFoot -8.199038 1.622762 -11.063853
LeftToeBase 9.863887 -0.000000 -0.000000
RightUpLeg -0.641273 -7.426447 0.525454
RightLeg 0.803483 -0.000000 -0.000000
RightFoot -6.831277 -1.642739 0.487640
RightToeBase -1.063911 -0.000000 0.000000
1228
root -1.051605 33.168391 -2.146571 7.048623 4.076680 -0.900670
Spine -14.082285 4.017455 -2.555069
Head 1.285054 4.232782 10.150597
LeftShoulder -17.026336 -15.748477 45.984171
LeftArm 158.677340 -41.949990 -109.293396
LeftForeArm -41.881910 -0.000000 143.955552
LeftHand -5.243624 -0.000000 -17.082675
LeftHandThumb1 -26.253704 0.000000 33.147579
RightShoulder -19.372449 28.386600 -53.278757
RightArm 57.588609 42.532618 45.784891
RightForeArm 60.518856 0.000000 102.606469
RightHand 2.575669 -0.000000 5.908595
RightHandThumb1 -24.326973 -0.000000 -32.862282
LeftUpLeg -0.002393 5.804768 2.261342
LeftLeg -1.224369 -0.000000 0.000000
LeftFoot -8.215312 1.654298 -11.087806
LeftToeBase 9.830909 -0.000000 -0.000000
RightUpLeg -0.636329 -7.430018 0.520819
RightLeg 0.800621 -0.000000 -0.000000
RightFoot -6.831329 -1.638747 0.487937
RightToeBase -1.058760 -0.000000 0.000000
1229
root -1.051566 33.168391 -2.147972 7.039932 4.078482 -0.900857
Spine -14.085266 4.025989 -2.556600
Head 1.330591 4.209986 10.152607
LeftShoulder -17.023020 -15.748230 46.004800
LeftArm 158.633931 -41.952065 -109.284623
LeftForeArm -41.897142 -0.000000 143.959795
LeftHand -5.252773 0.000000 -17.079656
LeftHandThumb1 -26.253704 0.000000 33.147579
RightShoulder -19.366603 28.378307 -53.279093
RightArm 57.573023 42.513520 45.773954
RightForeArm 60.507764 -0.000000 102.605024
RightHand 2.568426 -0.000000 5.886215
RightHandThumb1 -24.326973 -0.000000 -32.862282
LeftUpLeg 0.003275 5.806315 2.267232
LeftLeg -1.230003 -0.000000 0.000000
LeftFoot -8.204253 1.635147 -11.069771
LeftToeBase 9.873207 -0.000000 -0.000000
RightUpLeg -0.634509 -7.422727 0.518655
RightLeg 0.813180 -0.000000 -0.000000
RightFoot -6.840704 -1.633238 0.527695
RightToeBase -1.056409 -0.000000 0.000000
1230
root -1.051297 33.168554 -2.148973 7.030251 4.090257 -0.905528
Spine -14.088273 4.027245 -2.546319
Head 1.379285 4.186336 10.141637
LeftShoulder -16.961672 -15.724357 45.999791
LeftArm 158.702566 -41.965244 -109.345285
LeftForeArm -41.933057 -0.000000 143.947242
LeftHand -5.249592 -0.000000 -17.108653
LeftHandThumb1 -26.253704 0.000000 33.147579
RightShoulder -19.354256 28.357691 -53.276324
RightArm 57.571159 42.505050 45.781185
RightForeArm 60.485853 0.000000 102.610646
RightHand 2.503279 -0.000000 5.750573
RightHandThumb1 -24.326973 -0.000000 -32.862282
LeftUpLeg 0.009539 5.794733 2.272294
LeftLeg -1.233632 -0.000000 0.000000
LeftFoot -8.201907 1.635042 -11.046323
LeftToeBase 9.872935 -0.000000 -0.000000
RightUpLeg -0.628354 -7.442503 0.523774
RightLeg 0.816416 -0.000000 -0.000000
RightFoot -6.833717 -1.637347 0.498223
RightToeBase -1.104427 -0.000000 0.000000
1231
root -1.050441 33.168825 -2.150562 7.023374 4.095355 -0.902944
Spine -14.090525 4.029504 -2.545258
Head 1.434679 4.176628 10.145300
LeftShoulder -16.945600 -15.729563 46.013092
LeftArm 158.686117 -41.960990 -109.355666
LeftForeArm -41.930834 -0.000000 143.944074
LeftHand -5.243278 -0.000000 -17.116868
LeftHandThumb1 -26.253704 0.000000 33.147579
RightShoulder -19.350950 28.331072 -53.255506
RightArm 57.627533 42.492322 45.808187
RightForeArm 60.480051 -0.000000 102.592711
RightHand 2.549231 -0.000000 5.884599
RightHandThumb1 -24.326973 -0.000000 -32.862282
LeftUpLeg 0.010275 5.778659 2.265380
LeftLeg -1.218887 -0.000000 0.000000
LeftFoot -8.210350 1.668433 -11.093076
LeftToeBase 9.859511 -0.000000 -0.000000
RightUpLeg -0.625903 -7.435715 0.518968
RightLeg 0.822198 -0.000000 -0.000000
RightFoot -6.829968 -1.649651 0.496239
RightToeBase -1.117239 -0.000000 0.000000
1232
root -1.050468 33.169086 -2.151550 7.007787 4.103981 -0.900847
Spine -14.086280 4.037232 -2.563164
Head 1.495766 4.162311 10.195718
LeftShoulder -17.030722 -16.046630 46.160941
LeftArm 158.129290 -42.003934 -109.009456
LeftForeArm -41.935459 -0.000000 143.982131
LeftHand -5.236413 -0.000000 -17.153309
LeftHandThumb1 -26.253704 0.000000 33.147579
RightShoulder -19.338106 28.310555 -53.222355
RightArm 57.613694 42.488406 45.797267
RightForeArm 60.440766 -0.000000 102.610160
RightHand 2.483880 -0.000000 5.713718
RightHandThumb1 -24.326973 -0.000000 -32.862282
LeftUpLeg 0.019956 5.776250 2.264962
LeftLeg -1.211663 -0.000000 0.000000
LeftFoot -8.219231 1.653632 -11.080958
LeftToeBase 9.884854 -0.000000 -0.000000
RightUpLeg -0.613005 -7.439292 0.516141
RightLeg 0.825192 -0.000000 -0.000000
RightFoot -6.836232 -1.656657 0.480148
RightToeBase -1.085641 -0.000000 0.000000
1233
root -1.049950 33.169210 -2.152609 7.003155 4.108204 -0.898673
Spine -14.091643 4.033416 -2.561129
Head 1.547558 4.164458 10.195927
LeftShoulder -16.938754 -15.815644 46.069575
LeftArm 158.508334 -41.954876 -109.249405
LeftForeArm -41.985351 -0.000000 143.941808
LeftHand -5.171199 -0.000000 -17.171381
LeftHandThumb1 -26.253704 0.000000 33.147579
RightShoulder -19.328504 28.279459 -53.213675
RightArm 57.647288 42.489062 45.843158
RightForeArm 60.390662 0.000000 102.618505
RightHand 2.468112 -0.000000 5.706855
RightHandThumb1 -24.326973 -0.000000 -32.862282
LeftUpLeg 0.017688 5.797581 2.262158
LeftLeg -1.203282 -0.000000 0.000000
LeftFoot -8.212223 1.632748 -11.069273
LeftToeBase 9.866892 -0.000000 -0.000000
RightUpLeg -0.615064 -7.437293 0.513133
RightLeg 0.838460 -0.000000 -0.000000
RightFoot -6.844602 -1.659596 0.507222
RightToeBase -1.086568 -0.000000 0.000000
1234
root -1.049418 33.169408 -2.153986 6.993013 4.116889 -0.897769
Spine -14.093767 4.013945 -2.564348
Head 1.638715 4.193500 10.255125
LeftShoulder -16.985468 -15.929005 46.137480
LeftArm 158.263346 -41.966023 -109.085303
LeftForeArm -41.974795 0.000000 143.957193
LeftHand -5.176026 0.000000 -17.182372
LeftHandThumb1 -26.253704 0.000000 33.147579
RightShoulder -19.301236 28.299704 -53.180476
RightArm 57.641983 42.465792 45.823217
RightForeArm 60.386895 0.000000 102.611198
RightHand 2.540059 -0.000000 5.833816
RightHandThumb1 -24.326973 -0.000000 -32.862282
LeftUpLeg 0.024374 5.767367 2.263358
LeftLeg -1.202300 -0.000000 0.000000
LeftFoot -8.213274 1.650282 -11.079150
LeftToeBase 9.861262 -0.000000 -0.000000
RightUpLeg -0.611513 -7.426531 0.510987
RightLeg 0.848396 -0.000000 -0.000000
RightFoot -6.850662 -1.685216 0.484555
RightToeBase -1.068359 -0.000000 0.000000
1235
root -1.051107 33.169644 -2.154666 6.985688 4.126673 -0.907753
Spine -14.097561 4.003205 -2.561163
Head 1.696377 4.208958 10.295372
LeftShoulder -17.014854 -16.043570 46.212731
LeftArm 158.060373 -41.985417 -108.967957
LeftForeArm -41.975691 0.000000 143.969868
LeftHand -5.156210 -0.000000 -17.216802
LeftHandThumb1 -26.253704 0.000000 33.147579
RightShoulder -19.287461 28.292117 -53.156648
RightArm 57.643926 42.457484 45.840451
RightForeArm 60.343838 -0.000000 102.621436
RightHand 2.469403 0.000000 5.715009
RightHandThumb1 -24.326973 -0.000000 -32.862282
LeftUpLeg 0.026291 5.766953 2.282282
LeftLeg -1.203588 -0.000000 0.000000
LeftFoot -8.198173 1.614723 -11.050268
LeftToeBase 9.901663 -0.000000 -0.000000
RightUpLeg -0.600060 -7.436486 0.517974
RightLeg 0.836096 -0.000000 -0.000000
RightFoot -6.831060 -1.638635 0.547820
RightToeBase -1.071819 -0.000000 0.000000
